<svg xmlns="http://www.w3.org/2000/svg" xmlns:xlink="http://www.w3.org/1999/xlink" width="32" height="32" viewBox="0 0 32 32"><defs><style>.a{clip-path:url(#b);}.b{fill:#82dd7e;}.c{fill:#fff;stroke:#fff;stroke-width:0.85px;}</style><clipPath id="b"><rect width="32" height="32"/></clipPath></defs><g id="a" class="a"><rect class="b" width="32" height="32" rx="16"/><g transform="matrix(0.921, 0.391, -0.391, 0.921, 7.968, -4.249)"><path class="c" d="M28.715,26.019a.494.494,0,0,0-.335.611c.013.046,1.322,4.73.962,15.134a.491.491,0,0,0,.473.51h.018a.491.491,0,0,0,.489-.476c.366-10.561-.944-15.248-1-15.443A.491.491,0,0,0,28.715,26.019Z" transform="translate(-13.905 -13.492)"/><path class="c" d="M19.03,6.006a10.12,10.12,0,0,0-4.34.792A10.374,10.374,0,0,0,8.744,19.169a12.626,12.626,0,0,1,.365,1.573A63.924,63.924,0,0,1,9.294,27.7a.49.49,0,1,0,.98,0,62.6,62.6,0,0,0-.2-7.1,13.313,13.313,0,0,0-.392-1.7A9.343,9.343,0,0,1,18.995,6.991c3.486.126,7.437,3.217,8.629,6.751,1.031,3.057,1.04,8.266.912,12.956a.492.492,0,0,0,.477.506.5.5,0,0,0,.5-.48c.13-4.778.117-10.1-.964-13.3C27.22,9.475,22.948,6.147,19.03,6.006Z" transform="translate(-3.707 -3.355)"/><path class="c" d="M27.322,12a7.273,7.273,0,0,0-1.578.172.493.493,0,0,0,.211.963A6.355,6.355,0,0,1,33.19,16.9c1.191,2.831,1.269,7.374.994,15.3a.491.491,0,0,0,.473.51h.018a.491.491,0,0,0,.489-.476c.286-8.247.2-12.7-1.071-15.722A7.337,7.337,0,0,0,27.322,12Z" transform="translate(-12.375 -6.397)"/><path class="c" d="M18.193,15.415a.5.5,0,0,0,.12-.687.488.488,0,0,0-.683-.12A7.869,7.869,0,0,0,14.9,23.137a38.78,38.78,0,0,1,1.005,9.372.49.49,0,1,0,.98,0,39.1,39.1,0,0,0-1.041-9.634A6.879,6.879,0,0,1,18.193,15.415Z" transform="translate(-6.887 -7.673)"/><path class="c" d="M38.252,47.5a.491.491,0,0,0-.487-.5h0a.492.492,0,0,0-.49.49c0,.371.01.912.023,1.5.019.851.041,1.815.02,2.435a.491.491,0,0,0,.473.509H37.8a.491.491,0,0,0,.489-.476c.023-.648,0-1.627-.019-2.491C38.261,48.39,38.25,47.859,38.252,47.5Z" transform="translate(-18.447 -24.135)"/><path class="c" d="M25.319,19a3.883,3.883,0,0,0-1.51.3,4.017,4.017,0,0,0-2.157,5.037c.37,1.129.682,7.039.682,12.9a.49.49,0,1,0,.98,0c0-5.28-.279-11.834-.73-13.213a3.037,3.037,0,0,1,1.6-3.819,2.906,2.906,0,0,1,1.132-.229,2.938,2.938,0,0,1,2.71,1.81c.915,2.179,1.187,6.125,1.254,9.051a.492.492,0,0,0,.49.482h.011a.493.493,0,0,0,.479-.5c-.069-3.011-.356-7.089-1.333-9.416A3.913,3.913,0,0,0,25.319,19Z" transform="translate(-10.372 -9.945)"/></g></g></svg>