<svg xmlns="http://www.w3.org/2000/svg" xmlns:xlink="http://www.w3.org/1999/xlink" width="32" height="32" viewBox="0 0 32 32"><defs><style>.a{clip-path:url(#b);}.b{fill:#7ed9dd;}.c,.d{fill:none;stroke:#fff;stroke-linecap:round;stroke-width:2px;}.d{stroke-linejoin:round;}</style><clipPath id="b"><rect width="32" height="32"/></clipPath></defs><g id="a" class="a"><rect class="b" width="32" height="32" rx="16"/><path class="c" d="M1996,106v24" transform="translate(-1980 -102)"/><path class="c" d="M1996,106v24" transform="translate(134 -1980) rotate(90)"/><path class="c" d="M1996,106v24" transform="translate(-1311.947 -1478.824) rotate(45)"/><path class="c" d="M1996,106v24" transform="translate(1510.824 -1311.947) rotate(135)"/><path class="d" d="M-1980-98h0Zm4-4v0Z" transform="translate(1987 109)"/><path class="d" d="M-1980-98h0Zm4-4v0Z" transform="translate(-77 1987) rotate(90)"/><path class="d" d="M-1980-98h0Zm4-4v0Z" transform="translate(-1955 -77) rotate(180)"/><path class="d" d="M-1980-98h0Zm4-4v0Z" transform="translate(109 -1955) rotate(-90)"/></g></svg>